<svg className='md:static fixed top-1'
           version="1.1" id="Layer_1" xmlns="http://www.w3.org/2000/svg" xmlns:xlink="http://www.w3.org/1999/xlink" x="0px" y="0px"  width="600" height="600"
           viewBox="0 0 1024 1024" enable-background="new 0 0 1024 1024" xml:space="preserve">
        <path fill="#000000" opacity="1.000000" stroke="white" 
        d="
        M371.141785,567.718750 
        C381.112854,571.631653 390.664459,575.568909 400.349884,579.143738 
        C403.842377,580.432800 405.223389,582.275574 405.346008,586.048828 
        C406.238464,613.505981 407.309937,640.957520 408.390289,668.408264 
        C409.359131,693.025024 410.386902,717.639587 411.433136,742.253235 
        C412.705750,772.193604 414.031342,802.131775 415.304626,832.072083 
        C415.366180,833.519714 415.840149,835.068970 414.512848,836.738342 
        C411.259888,836.322815 408.637604,834.261414 406.029358,832.331482 
        C388.189240,819.131042 374.972382,801.797485 362.861542,783.542114 
        C340.569336,749.939819 323.671112,713.548523 307.540741,676.730774 
        C304.759186,670.381775 303.789886,664.241821 303.796631,657.516907 
        C303.869446,584.854370 303.839539,512.191589 303.745758,439.528992 
        C303.740936,435.797302 304.722473,432.832520 307.150330,429.990967 
        C316.509918,419.036682 326.268616,408.644745 339.716187,402.510742 
        C343.983002,400.564484 347.500580,400.498138 351.801208,403.105469 
        C376.590546,418.134338 401.596497,432.805603 426.513794,447.623688 
        C438.771332,454.913086 452.474121,458.826691 465.501282,464.308411 
        C479.468475,470.185638 493.695374,475.442932 507.724060,481.178497 
        C511.698639,482.803436 515.193542,482.812439 519.214111,481.180878 
        C543.293457,471.409332 567.555115,462.082092 591.559998,452.133881 
        C602.186035,447.730255 611.500793,440.748901 621.392456,434.909668 
        C639.327637,424.322296 657.221313,413.661865 675.004150,402.821747 
        C678.532776,400.670746 681.596008,400.463196 685.287598,402.047821 
        C700.063660,408.390533 710.582458,419.617676 720.135254,431.999420 
        C721.342102,433.563721 721.332458,435.403229 721.332336,437.247833 
        C721.327820,514.910278 721.326294,592.572693 721.325317,670.235107 
        C721.325256,671.909119 721.162903,673.523254 720.490356,675.113098 
        C704.046997,713.984619 686.114258,752.088135 662.360229,787.158081 
        C651.675354,802.932922 639.950806,817.845520 624.956482,829.853699 
        C621.477600,832.639771 617.944336,835.425049 613.685120,836.739929 
        C611.877930,835.536560 612.456116,833.979370 612.511353,832.521729 
        C613.299500,811.723633 614.030945,790.923340 614.864563,770.127075 
        C616.184631,737.191223 617.562378,704.257690 618.932739,671.323853 
        C619.880981,648.534973 620.847839,625.746826 621.829529,602.959351 
        C622.073120,597.305603 622.666748,591.652954 622.608032,586.004883 
        C622.568481,582.202454 624.053101,580.436646 627.530457,579.096252 
        C650.066589,570.409241 672.466797,561.367737 695.040588,552.781738 
        C700.301758,550.780762 702.222290,547.963623 701.717163,542.373535 
        C699.815063,521.324585 698.254028,500.244781 696.547302,479.177948 
        C696.340637,476.626587 695.410522,474.393799 693.732666,472.378876 
        C686.481628,463.671417 679.246643,454.948730 672.142151,446.121887 
        C669.344727,442.646301 666.761108,442.362915 662.744751,444.565063 
        C622.135498,466.831329 581.445801,488.951996 540.674622,510.920441 
        C536.342773,513.254517 534.724609,516.033386 535.247437,520.817444 
        C536.801270,535.035767 538.044312,549.287781 539.522705,563.514771 
        C541.345215,581.053894 543.375183,598.571716 545.146362,616.115845 
        C547.351990,637.963501 549.292480,659.838318 551.595215,681.675232 
        C551.928589,684.836609 551.295959,686.662720 548.590881,688.200623 
        C537.873230,694.293884 527.201477,700.469238 516.570801,706.712952 
        C514.433716,707.968140 512.680176,707.912537 510.560883,706.672058 
        C499.921112,700.443970 489.221222,694.318237 478.523743,688.189148 
        C476.368073,686.954041 475.080780,685.705322 475.403503,682.710205 
        C478.556854,653.443115 481.565002,624.159912 484.499054,594.869690 
        C487.001343,569.889709 489.296478,544.888794 491.826080,519.911682 
        C492.238678,515.837891 490.856445,513.472778 487.276031,511.533691 
        C445.963104,489.159668 404.694305,466.703705 363.481262,444.146271 
        C359.752594,442.105438 357.355255,442.860199 354.940125,445.971649 
        C348.096100,454.789124 341.324982,463.673645 334.171539,472.236359 
        C330.265656,476.911835 331.309998,482.401581 330.819061,487.525665 
        C329.041504,506.078522 327.897064,524.691406 326.205811,543.253540 
        C325.722137,548.562073 327.764832,551.013611 332.579163,552.776550 
        C345.401306,557.471497 358.054657,562.627319 371.141785,567.718750 
        z"/>
        <path fill="#000000" opacity="1.000000" stroke="none" 
        d="
        M617.167297,429.213409 
        C596.281006,443.766479 572.877747,452.151398 549.774780,461.180786 
        C539.072021,465.363739 528.383423,469.587067 517.757751,473.960571 
        C514.762634,475.193329 512.137573,475.125397 509.148895,473.927094 
        C485.807922,464.568542 462.229370,455.774048 439.109131,445.903717 
        C423.781677,439.360199 410.236206,429.351685 395.853180,420.964050 
        C381.317780,412.487579 366.897156,403.811829 352.510651,395.084290 
        C349.220856,393.088562 346.097717,392.877563 342.528015,394.011963 
        C329.570465,398.129425 319.431366,406.335907 310.231354,415.949524 
        C309.312378,416.909882 308.488647,417.963409 307.544037,418.896057 
        C307.220947,419.215027 306.662811,419.295868 305.100098,419.953247 
        C305.483856,403.051666 308.102783,387.032867 312.037384,371.275330 
        C322.787537,328.222748 343.260437,290.545715 374.557617,259.001373 
        C377.305695,260.119110 377.473480,262.340485 378.149078,264.088379 
        C383.971649,279.152802 389.767792,294.228455 395.399719,309.364807 
        C396.688110,312.827576 398.725983,315.282928 401.767761,317.340240 
        C437.099182,341.236023 472.416809,365.153137 507.598114,389.268829 
        C511.989532,392.279022 515.036377,392.242584 519.496643,389.174255 
        C553.950195,365.472504 588.587708,342.037476 623.244812,318.633209 
        C627.409973,315.820496 630.323975,312.545410 632.082947,307.692657 
        C637.359924,293.134674 643.086365,278.739624 648.635498,264.280273 
        C649.222107,262.751892 649.630127,261.113922 651.030945,260.121674 
        C681.018677,275.388947 726.239319,378.426422 720.911804,419.174652 
        C718.612000,419.477722 717.913513,417.401672 716.748047,416.208221 
        C707.827209,407.073090 698.241821,398.946716 685.990662,394.499481 
        C681.265076,392.784058 677.217285,393.141174 672.772034,395.869171 
        C654.456665,407.109100 635.932678,418.009186 617.167297,429.213409 
        z"/>
        <path fill="#000000" opacity="1.000000" stroke="none" 
        d="
        M514.506592,315.353363 
        C523.130188,307.048248 531.455261,298.890015 539.722900,290.673981 
        C542.918335,287.498535 542.226929,283.138580 542.479736,279.305145 
        C544.046570,255.549911 545.401611,231.779312 546.594910,208.002182 
        C546.793213,204.050308 548.055847,203.119385 551.748779,203.947418 
        C583.045410,210.965164 611.149353,224.524078 635.787476,245.067444 
        C647.097656,254.497894 645.663330,250.960098 640.771912,264.141541 
        C635.673279,277.881378 630.378235,291.548218 625.267944,305.283752 
        C624.177979,308.213379 622.548645,310.447906 619.923096,312.228607 
        C586.276550,335.048553 552.614136,357.846588 519.145020,380.924652 
        C514.786865,383.929718 511.966217,383.651245 507.772797,380.770569 
        C474.673462,358.032837 441.418213,335.521576 408.145477,313.037506 
        C404.799927,310.776764 402.721863,308.018127 401.315491,304.223511 
        C395.529419,288.611572 389.581787,273.055969 383.403015,257.595734 
        C381.941895,253.939804 382.193542,251.673264 385.282806,249.009003 
        C411.420441,226.467117 441.185547,211.233398 474.933929,203.824402 
        C478.659668,203.006470 480.220612,203.705750 480.457703,208.061966 
        C481.850861,233.659592 483.606293,259.237335 485.144928,284.827454 
        C485.305054,287.490082 486.095612,289.577820 487.997711,291.461884 
        C495.337463,298.732056 502.582092,306.098175 509.872467,313.418335 
        C511.056702,314.607391 512.273621,315.785187 514.506592,315.353363 
        z"/>
        <path fill="#000000" opacity="1.000000" stroke="none" 
        d="
        M604.335266,832.112427 
        C605.291504,839.592773 602.610413,845.590698 599.325195,851.510071 
        C596.043823,857.422302 593.048889,863.493530 589.884644,869.579163 
        C587.214966,868.119873 588.035034,866.085510 588.033875,864.435547 
        C587.966064,767.125061 587.979736,669.814514 587.798767,572.504272 
        C587.788757,567.133362 589.385010,564.137756 594.256104,561.622681 
        C620.009216,548.325745 645.532837,534.585205 671.232605,521.183533 
        C675.488220,518.964355 677.343018,516.324585 676.820740,511.372559 
        C675.390015,497.806396 674.390381,484.195099 673.178284,470.605377 
        C672.873718,467.190460 672.408142,463.789459 673.083557,459.159180 
        C682.185730,469.286377 690.459595,477.892029 690.487305,492.162872 
        C690.518127,508.086121 692.680908,524.013306 694.123413,539.919922 
        C694.464722,543.684570 693.365295,545.692627 689.756714,547.079285 
        C667.372986,555.680054 645.111145,564.599792 622.689392,573.098511 
        C617.442322,575.087402 615.335449,577.777527 615.123108,583.634094 
        C613.843994,618.901917 612.080261,654.151978 610.495239,689.408813 
        C609.784851,705.211853 609.107544,721.016418 608.424683,736.820740 
        C607.059265,768.426147 605.700317,800.031799 604.335266,832.112427 
        z"/>
        <path fill="#000000" opacity="1.000000" stroke="none" 
        d="
        M437.067871,596.000000 
        C437.068695,686.573181 437.068695,776.646362 437.068695,866.583801 
        C434.449554,867.114441 434.437592,865.562439 433.910248,864.690063 
        C433.397766,863.842224 433.213806,862.784424 432.656677,861.976685 
        C423.097778,848.118835 422.297272,832.286316 421.751038,816.203857 
        C420.241913,771.771057 418.365997,727.350586 416.602386,682.926575 
        C415.657715,659.131714 414.663696,635.338867 413.655640,611.546570 
        C413.232819,601.567139 412.616913,591.594971 412.288300,581.612976 
        C412.147156,577.325134 410.104156,575.087585 406.202667,573.583191 
        C383.827362,564.955261 361.574188,556.007507 339.141907,547.532776 
        C334.355743,545.724670 333.394440,543.087646 333.834869,538.495667 
        C335.581604,520.284424 337.217194,502.058685 338.523254,483.811798 
        C338.815063,479.735107 339.914307,476.475372 342.475769,473.407715 
        C345.971161,469.221649 349.228729,464.836945 352.795990,460.271515 
        C355.103943,462.598022 354.154877,464.805786 353.968903,466.768311 
        C352.493317,482.337738 350.991455,497.905396 349.342468,513.457153 
        C348.930786,517.339966 350.909454,519.138550 353.975189,520.769043 
        C379.714264,534.457886 405.358490,548.325989 431.156860,561.901489 
        C435.356659,564.111511 437.399963,566.542114 437.145081,571.510132 
        C436.735779,579.487061 437.055450,587.501465 437.067871,596.000000 
        z"/>
        <path fill="#000000" opacity="1.000000" stroke="none" 
        d="
        M536.296143,256.132202 
        C535.897461,264.750549 535.482422,272.889587 535.128113,281.031219 
        C534.999390,283.988525 534.054810,286.474854 531.890015,288.602814 
        C526.786621,293.619202 521.710388,298.669678 516.798889,303.872223 
        C514.344421,306.472198 512.533813,306.132935 510.236298,303.689697 
        C506.133240,299.326294 502.035675,294.904877 497.498932,291.017578 
        C493.299103,287.418945 492.043549,283.069458 491.784485,277.840302 
        C490.484772,251.606842 489.033112,225.380783 487.585114,199.154877 
        C486.980408,188.202499 486.300049,177.253662 485.543732,166.310822 
        C485.376068,163.885345 485.962402,162.227646 488.185455,160.970352 
        C495.572052,156.792679 502.915375,152.534576 510.192413,148.169144 
        C512.623535,146.710724 514.674377,146.689056 517.115479,148.178436 
        C524.075317,152.424683 531.092834,156.584518 538.207764,160.563629 
        C540.745117,161.982681 541.632568,163.673019 541.449158,166.559357 
        C540.037292,188.781219 538.743835,211.010712 537.449280,233.239914 
        C537.014343,240.708145 536.682678,248.182373 536.296143,256.132202 
        z"/>
        <path fill="#000000" opacity="1.000000" stroke="none" 
        d="
        M393.263367,851.747375 
        C371.096771,830.531982 355.323639,805.485840 343.782959,777.592773 
        C339.963409,768.361023 335.803375,759.270630 331.874634,750.083252 
        C331.199463,748.504333 329.767914,747.027161 330.706635,744.696106 
        C333.166168,746.123474 333.817566,748.622437 334.943939,750.716492 
        C349.192688,777.206482 364.886505,802.700256 385.945709,824.470825 
        C394.454559,833.267029 403.653900,841.171997 415.261292,845.708984 
        C416.770386,846.298828 417.740601,847.353394 418.422546,848.732971 
        C422.998474,857.989807 427.570435,867.248596 432.104675,876.525818 
        C432.364410,877.057373 432.281433,877.756470 432.488007,879.432068 
        C417.546509,872.099487 405.209412,862.518066 393.263367,851.747375 
        z"/>
        <path fill="#000000" opacity="1.000000" stroke="none" 
        d="
        M648.102173,818.098572 
        C666.171082,797.318237 680.248108,774.240601 693.332031,750.394104 
        C694.635315,751.467529 694.435730,752.174316 694.174500,752.752441 
        C683.694031,775.944885 674.991333,800.002258 659.979797,820.956543 
        C644.158508,843.041138 625.256653,861.752014 601.800781,875.668213 
        C600.512085,876.432861 599.203064,877.168884 597.864075,877.839539 
        C597.461853,878.041016 596.925964,877.975769 596.497803,878.027100 
        C595.468140,877.036865 596.029236,876.077454 596.451233,875.220764 
        C600.794128,866.403503 605.175842,857.605469 609.532288,848.794922 
        C610.221741,847.400574 611.149841,846.283508 612.631592,845.695251 
        C627.014038,839.985107 637.551270,829.317017 648.102173,818.098572 
        z"/>
        </svg>   